# xmcd
#
# Track frame offsets:
#  150
#  16000
#  35982
#  48218
#  64724
#  81997
#
# Disc length: 1365 seconds
#
# Revision: 0
# Processed by: cddbd v1.5.2PL0 Copyright (c) Steve Scherf et al.
# Submitted via: AltoMP3_Maker 3.0
#
DISCID=45055306
DTITLE=Bowden Brothers - Bowden Brothers
DYEAR=1900
DGENRE=
TTITLE0=Diamantina Drover
TTITLE1=Solid Rock
TTITLE2=Timshel
TTITLE3=Under The Milkyway
TTITLE4=Tricia's Song
TTITLE5=Raining On The Rock
EXTD=
EXTT0=
EXTT1=
EXTT2=
EXTT3=
EXTT4=
EXTT5=
PLAYORDER=
